<?xml version="1.0" encoding="UTF-8"?>
<svg id="Layer_2" data-name="Layer 2" xmlns="http://www.w3.org/2000/svg" viewBox="0 0 372.51 390.54">
  <defs>
    <style>
      .cls-1 {
        fill: #0061ff;
      }

      .cls-2 {
        fill: #fff;
      }
    </style>
  </defs>
  <g id="Logos">
    <g>
      <path class="cls-1" d="m7.63,172L172,7.63c10.17-10.17,26.66-10.17,36.83,0l156.05,156.05c4.88,4.88,7.63,11.51,7.63,18.42v182.4c0,14.38-11.66,26.05-26.05,26.05H26.05c-14.38,0-26.05-11.66-26.05-26.05v-174.08c0-6.91,2.74-13.53,7.63-18.42Z"/>
      <path class="cls-2" d="m208.23,302.55l-30.33-42.05h-13.03v42.05h-35.35v-130.25h64.57c14.33,0,25.86,4.09,34.61,12.28,8.56,8.37,12.84,19.17,12.84,32.38,0,19.91-9.12,33.12-27.54,40l35.54,45.59h-41.31Zm-19.54-69.22c12.1,0,18.05-5.21,18.05-15.82s-5.95-15.81-18.05-15.81h-24.19v31.63h24.19Z"/>
    </g>
  </g>
</svg>