<?xml version="1.0" encoding="UTF-8"?>
<svg id="Layer_2" data-name="Layer 2" xmlns="http://www.w3.org/2000/svg" viewBox="0 0 872.26 150.27">
  <defs>
    <style>
      .cls-1 {
        fill: #fff;
      }
    </style>
  </defs>
  <g id="Logos">
    <g>
      <g>
        <path fill="white" d="m215.17,65.32l-14.83-20.56h-6.37v20.56h-17.29V1.64h31.57c7,0,12.65,2,16.92,6.01,4.18,4.09,6.28,9.37,6.28,15.83,0,9.73-4.46,16.19-13.47,19.56l17.38,22.29h-20.2Zm-9.55-33.85c5.91,0,8.82-2.55,8.82-7.73s-2.91-7.73-8.82-7.73h-11.83v15.47h11.83Z"/>
        <path fill="white" d="m266.58,51.13h34.03v14.19h-50.68V1.64h49.4v14.01h-32.75v10.64h30.93v13.47h-30.93v11.37Z"/>
        <path fill="white" d="m366.66,65.32l-4.18-10.55h-29.57l-4.28,10.55h-18.47L338.73,1.64h18.2l28.39,63.69h-18.65Zm-10.1-25.11l-8.82-22.38-9.01,22.38h17.83Z"/>
        <path fill="white" d="m397.69,65.32V1.64h17.29v48.31h31.12v15.38h-48.4Z"/>
        <path fill="white" d="m505.95,51.13h34.03v14.19h-50.68V1.64h49.4v14.01h-32.75v10.64h30.93v13.47h-30.93v11.37Z"/>
        <path fill="white" d="m553.36,57.86l8.92-12.37c5.55,4.19,11.83,6.28,18.83,6.28,6.55,0,10.55-2.18,10.55-5.73s-3.28-5.37-11.19-6.09c-17.47-1.55-25.29-7.64-25.29-19.38,0-6.19,2.46-11.19,7.37-14.92,4.91-3.73,11.46-5.64,19.56-5.64,9.55,0,17.65,2.37,24.29,7.01l-7.92,12.1c-4.64-3.18-9.73-4.73-15.47-4.73-6.92,0-11.1,2.09-11.1,5.46,0,3.55,2.91,5,11.01,5.82,16.74,1.73,25.66,8.83,25.66,20.56,0,6.19-2.55,11.19-7.55,15.01-5.1,3.82-11.74,5.73-19.83,5.73-10.64,0-21.02-3.37-27.84-9.1Z"/>
        <path fill="white" d="m673.64,1.64v14.74h-18.74v48.95h-17.28V16.38h-18.74V1.64h54.77Z"/>
        <path fill="white" d="m731.59,65.32l-4.18-10.55h-29.57l-4.28,10.55h-18.47l28.57-63.69h18.2l28.39,63.69h-18.65Zm-10.1-25.11l-8.82-22.38-9.01,22.38h17.83Z"/>
        <path fill="white" d="m806.48,1.64v14.74h-18.74v48.95h-17.28V16.38h-18.74V1.64h54.77Z"/>
        <path fill="white" d="m838.23,51.13h34.03v14.19h-50.68V1.64h49.4v14.01h-32.75v10.64h30.93v13.47h-30.93v11.37Z"/>
        <path fill="white" d="m215.17,149.72l-14.83-20.56h-6.37v20.56h-17.29v-63.69h31.57c7,0,12.65,2,16.92,6.01,4.18,4.09,6.28,9.37,6.28,15.83,0,9.73-4.46,16.19-13.47,19.56l17.38,22.29h-20.2Zm-9.55-33.85c5.91,0,8.82-2.55,8.82-7.73s-2.91-7.73-8.82-7.73h-11.83v15.47h11.83Z"/>
        <path fill="white" d="m266.58,135.53h34.03v14.19h-50.68v-63.69h49.4v14.01h-32.75v10.64h30.93v13.47h-30.93v11.37Z"/>
        <path fill="white" d="m361.47,86.03h19.29l-26.2,63.69h-18.1l-26.11-63.69h19.29l7.37,18.92,8.46,24.47,8.82-24.47,7.19-18.92Z"/>
        <path fill="white" d="m393.32,149.72v-63.69h17.29v63.69h-17.29Z"/>
        <path fill="white" d="m447.45,135.53h34.03v14.19h-50.68v-63.69h49.4v14.01h-32.75v10.64h30.93v13.47h-30.93v11.37Z"/>
        <path fill="white" d="m574.28,86.03h19.01l-22.74,63.69h-15.38l-5.46-15.47-6.73-19.56-6.55,19.56-5.55,15.47h-15.19l-22.74-63.69h19.1l7.01,22.38,4.64,17.1,13.47-39.49h11.28l14.01,39.94,5.19-17.56,6.64-22.38Z"/>
      </g>
      <path class="cls-1" d="m2.88,67.76L64.94,5.7c3.84-3.84,10.07-3.84,13.91,0l58.92,58.92c1.84,1.84,2.88,4.35,2.88,6.95v68.87c0,5.43-4.4,9.83-9.83,9.83H9.83c-5.43,0-9.83-4.4-9.83-9.83v-65.72c0-2.61,1.04-5.11,2.88-6.95Z"/>
    </g>
  </g>
</svg>