<?xml version="1.0" encoding="UTF-8"?>
<svg id="Layer_2" data-name="Layer 2" xmlns="http://www.w3.org/2000/svg" viewBox="0 0 709.96 152.82">
  <g id="Logos">
    <g>
      <path d="m39.28,66.68l-15.14-20.99h-6.5v20.99H0V1.67h32.23c7.15,0,12.91,2.04,17.27,6.13,4.27,4.18,6.41,9.56,6.41,16.16,0,9.94-4.55,16.53-13.74,19.97l17.74,22.75h-20.62Zm-9.75-34.55c6.04,0,9.01-2.6,9.01-7.89s-2.97-7.89-9.01-7.89h-12.07v15.79h12.07Z"/>
      <path d="m91.75,52.19h34.73v14.49h-51.73V1.67h50.43v14.3h-33.43v10.87h31.57v13.74h-31.57v11.61Z"/>
      <path d="m193.91,66.68l-4.27-10.77h-30.18l-4.37,10.77h-18.85L165.4,1.67h18.57l28.97,65h-19.04Zm-10.31-25.63l-9.01-22.84-9.19,22.84h18.2Z"/>
      <path d="m225.57,66.68V1.67h17.64v49.31h31.76v15.69h-49.4Z"/>
      <path d="m336.08,52.19h34.73v14.49h-51.73V1.67h50.43v14.3h-33.43v10.87h31.57v13.74h-31.57v11.61Z"/>
      <path d="m384.47,59.06l9.1-12.63c5.66,4.27,12.07,6.41,19.22,6.41,6.69,0,10.77-2.23,10.77-5.85s-3.34-5.48-11.42-6.22c-17.83-1.58-25.82-7.8-25.82-19.78,0-6.32,2.51-11.42,7.52-15.23,5.02-3.81,11.7-5.76,19.97-5.76,9.75,0,18.01,2.41,24.79,7.15l-8.08,12.35c-4.74-3.25-9.93-4.83-15.79-4.83-7.06,0-11.33,2.14-11.33,5.57,0,3.62,2.97,5.11,11.24,5.94,17.09,1.77,26.19,9.01,26.19,20.99,0,6.31-2.6,11.42-7.71,15.32-5.2,3.9-11.98,5.85-20.25,5.85-10.87,0-21.45-3.44-28.42-9.29Z"/>
      <path d="m507.24,1.67v15.04h-19.13v49.96h-17.64V16.72h-19.13V1.67h55.9Z"/>
      <path d="m566.39,66.68l-4.27-10.77h-30.18l-4.37,10.77h-18.85L537.88,1.67h18.57l28.97,65h-19.04Zm-10.31-25.63l-9.01-22.84-9.19,22.84h18.2Z"/>
      <path d="m642.82,1.67v15.04h-19.13v49.96h-17.64V16.72h-19.13V1.67h55.9Z"/>
      <path d="m675.23,52.19h34.73v14.49h-51.73V1.67h50.43v14.3h-33.43v10.87h31.57v13.74h-31.57v11.61Z"/>
      <path d="m39.28,152.82l-15.14-20.99h-6.5v20.99H0v-65h32.23c7.15,0,12.91,2.04,17.27,6.13,4.27,4.18,6.41,9.56,6.41,16.16,0,9.94-4.55,16.53-13.74,19.97l17.74,22.75h-20.62Zm-9.75-34.55c6.04,0,9.01-2.6,9.01-7.89s-2.97-7.89-9.01-7.89h-12.07v15.79h12.07Z"/>
      <path d="m91.75,138.33h34.73v14.49h-51.73v-65h50.43v14.3h-33.43v10.87h31.57v13.74h-31.57v11.61Z"/>
      <path d="m188.61,87.81h19.69l-26.75,65h-18.48l-26.65-65h19.68l7.52,19.32,8.64,24.98,9.01-24.98,7.34-19.32Z"/>
      <path d="m221.12,152.82v-65h17.64v65h-17.64Z"/>
      <path d="m276.37,138.33h34.73v14.49h-51.73v-65h50.43v14.3h-33.43v10.87h31.57v13.74h-31.57v11.61Z"/>
      <path d="m405.83,87.81h19.41l-23.22,65h-15.69l-5.57-15.79-6.87-19.97-6.69,19.97-5.66,15.79h-15.51l-23.22-65h19.5l7.15,22.84,4.73,17.46,13.74-40.3h11.52l14.3,40.77,5.29-17.92,6.78-22.84Z"/>
    </g>
  </g>
</svg>